<svg width="43" height="51" viewBox="0 0 43 51" fill="none" xmlns="http://www.w3.org/2000/svg">
<path d="M40.7897 14.6202C39.2497 14.6202 37.7097 14.6202 36.1997 14.6202C35.9997 13.5502 35.8397 12.6201 35.6397 11.6901C35.5197 11.1301 35.2597 10.5902 34.5597 10.8102C33.9397 11.0002 33.9897 11.5202 34.1197 12.0702C34.2997 12.8602 34.3997 13.6701 34.5397 14.5101C32.8697 14.5101 31.3397 14.5101 29.8097 14.5101C30.1097 14.1701 30.4397 13.9802 30.7697 13.7902C31.9897 13.0902 32.1797 12.4201 31.5097 11.2201C31.0397 10.3901 30.5697 9.57013 30.0697 8.76013C29.4597 7.76013 28.7897 7.59001 27.7497 8.14001C27.4697 8.29001 27.1997 8.45022 26.9197 8.60022C25.8397 9.19022 24.7697 8.5702 24.7597 7.3302C24.7597 6.9802 24.7697 6.63016 24.7497 6.29016C24.6997 5.26016 24.1697 4.71006 23.1397 4.69006C22.0297 4.67006 20.9197 4.67006 19.8197 4.69006C18.9197 4.71006 18.4297 5.23022 18.3197 6.10022C18.2697 6.47022 18.2997 6.86011 18.2997 7.24011C18.2897 8.61011 17.2397 9.23019 16.0497 8.57019C15.7697 8.42019 15.4997 8.25023 15.2197 8.11023C14.2497 7.62023 13.5097 7.80007 12.9497 8.70007C12.4197 9.56007 11.8997 10.4302 11.4097 11.3202C10.8597 12.3202 11.1097 13.1201 12.1097 13.7201C12.4897 13.9501 12.8797 14.17 13.2597 14.4C13.2297 14.45 13.1997 14.5002 13.1697 14.5502C11.6397 14.5502 10.1197 14.5502 8.58973 14.5502C8.45973 9.77017 12.3597 4.80019 17.3397 3.07019C22.0997 1.41019 27.3897 3.15021 28.7497 4.84021C28.6097 4.86021 28.4897 4.88 28.3597 4.88C27.8097 4.88 27.3897 5.07004 27.3997 5.67004C27.3997 6.36004 27.9097 6.45007 28.4597 6.45007C29.3497 6.45007 30.2297 6.45007 31.1197 6.45007C31.6897 6.45007 32.0097 6.17021 32.0197 5.59021C32.0397 4.61021 32.0497 3.63002 32.0497 2.65002C32.0497 2.10002 31.7897 1.62012 31.2297 1.75012C30.9097 1.83012 30.6397 2.35009 30.4697 2.72009C30.3497 2.99009 30.4197 3.36019 30.3997 3.82019C25.5797 0.42019 20.5797 -0.199918 15.3697 2.21008C10.1597 4.63008 7.46973 8.91 6.85973 14.63C5.23973 14.63 3.68973 14.63 2.14973 14.63C0.899727 14.63 0.719727 14.8002 0.719727 16.0602C0.719727 24.1602 0.719727 32.2702 0.719727 40.3702C0.719727 41.6202 0.869725 41.7701 2.15973 41.7701C7.12972 41.7701 12.0997 41.7701 17.0697 41.7701C17.4397 41.7701 17.8097 41.8002 18.1997 41.8202C18.1997 43.1702 18.1997 44.4101 18.1997 45.6801C17.9397 45.7101 17.7597 45.7401 17.5697 45.7401C16.0497 45.7401 14.5297 45.7501 13.0097 45.7401C12.1697 45.7301 11.7897 46.1001 11.8197 46.9501C11.8497 47.7701 11.8197 48.6 11.8297 49.42C11.8397 50.54 12.0397 50.7401 13.1697 50.7501C15.7997 50.7601 18.4197 50.7501 21.0497 50.7501C23.9897 50.7501 26.9397 50.7601 29.8797 50.7501C30.9397 50.7501 31.1497 50.5201 31.1597 49.4601C31.1697 48.7001 31.1697 47.9401 31.1597 47.1801C31.1497 45.9501 30.9697 45.7601 29.7197 45.7601C28.1097 45.7501 26.5097 45.7601 24.7797 45.7601C24.7797 44.7201 24.8297 43.7702 24.7597 42.8402C24.6997 42.0002 24.9797 41.7701 25.8197 41.7701C30.8197 41.8101 35.8197 41.7902 40.8197 41.7902C42.1397 41.7902 42.2797 41.6502 42.2797 40.3102C42.2797 32.2702 42.2797 24.2301 42.2797 16.1901C42.2997 14.7701 42.1497 14.6302 40.7897 14.6202ZM12.7197 12.2101C13.2697 11.2401 13.7697 10.3701 14.2797 9.47009C15.6297 9.83009 16.4997 11.2002 18.3297 10.0802C20.0497 9.0302 19.7997 7.77018 19.8697 6.31018C20.9697 6.31018 21.9897 6.31018 23.0997 6.31018C23.3997 7.60018 22.7697 9.02018 24.5997 10.0602C26.3697 11.0702 27.2697 10.0501 28.6297 9.4801C29.1697 10.3901 29.6797 11.2701 30.2397 12.2101C29.1997 13.1301 27.6397 13.27 27.6997 15.41C27.7497 17.41 28.9497 17.7802 30.2297 18.5402C29.6897 19.5202 29.1897 20.4102 28.6597 21.3602C27.3297 20.8402 26.3897 19.7301 24.5997 20.7401C22.7997 21.7601 23.3497 23.1002 23.1297 24.5702C22.1597 24.5702 21.1997 24.6002 20.2297 24.5402C20.0897 24.5302 19.8397 24.1201 19.8697 23.9301C20.1697 22.2201 19.5197 21.1901 17.8897 20.5101C17.1297 20.2001 16.5997 20.0401 15.9197 20.5001C15.4497 20.8201 14.9397 21.07 14.3097 21.42C13.7897 20.48 13.2797 19.5602 12.7397 18.6002C13.9197 17.7502 15.2997 17.51 15.3097 15.4C15.3097 13.3 13.8797 13.0901 12.7197 12.2101ZM29.5397 47.4C29.5397 48.01 29.5397 48.5102 29.5397 49.0802C24.2097 49.0802 18.9097 49.0802 13.5397 49.0802C13.5397 48.5402 13.5397 48.01 13.5397 47.4C18.8597 47.4 24.1497 47.4 29.5397 47.4ZM19.8797 42.2601C19.8897 42.0901 20.1497 41.8002 20.3097 41.8002C21.2397 41.7602 22.1797 41.7802 23.1697 41.7802C23.1697 43.1202 23.1697 44.33 23.1697 45.66C22.0497 45.66 21.0197 45.66 19.8597 45.66C19.8597 44.51 19.8397 43.3901 19.8797 42.2601ZM40.6397 40.13C27.8897 40.13 15.1697 40.13 2.35973 40.13C2.35973 39.1 2.35973 38.17 2.35973 37.16C15.1297 37.16 27.8497 37.16 40.6397 37.16C40.6397 38.14 40.6397 39.11 40.6397 40.13ZM40.6497 35.42C27.8997 35.42 15.1697 35.42 2.37973 35.42C2.37973 29.06 2.37973 22.7202 2.37973 16.3002C3.84973 16.3002 5.31973 16.3002 6.83973 16.3002C7.00973 17.2102 7.15973 18.1402 7.35973 19.0502C7.48973 19.6202 7.69972 20.2502 8.45972 20.0302C9.15972 19.8302 9.00973 19.2501 8.87973 18.6901C8.70973 17.9201 8.61972 17.1401 8.47972 16.2601C10.1997 16.2601 11.7397 16.2601 13.2797 16.2601C13.3097 16.3101 13.3297 16.36 13.3597 16.42C12.8897 16.69 12.3997 16.9501 11.9397 17.2401C11.1197 17.7601 10.9097 18.5002 11.3597 19.3602C11.8597 20.3102 12.3897 21.25 12.9397 22.17C13.4697 23.06 14.1897 23.2502 15.1197 22.8002C15.4297 22.6502 15.7297 22.4702 16.0397 22.3002C17.2697 21.6202 18.2797 22.1902 18.2897 23.5802C18.2897 23.9302 18.2697 24.2802 18.2997 24.6202C18.3697 25.6102 18.8797 26.13 19.8697 26.15C20.9797 26.17 22.0897 26.17 23.1897 26.15C24.1297 26.13 24.6497 25.6201 24.7297 24.6901C24.7597 24.3101 24.7397 23.9302 24.7397 23.5502C24.7497 22.2102 25.7497 21.6101 26.9197 22.2601C29.1397 23.4801 29.2997 23.4301 30.5597 21.1801C30.8797 20.6001 31.2197 20.0301 31.5497 19.4501C32.1297 18.4001 31.9697 17.76 30.9597 17.15C30.5597 16.9 30.1397 16.6802 29.5297 16.3202C31.2797 16.3202 32.8197 16.3202 34.3597 16.3202C34.9397 19.3402 31.9497 24.4 28.2397 26.64C23.9697 29.23 17.8197 29.0002 14.0497 26.0302C14.3997 26.0002 14.6897 26.0501 14.8897 25.9301C15.1797 25.7601 15.5697 25.4701 15.5897 25.2201C15.5997 24.9601 15.2197 24.4701 14.9897 24.4501C13.8897 24.3701 12.7697 24.3601 11.6797 24.4501C11.4297 24.4701 11.0497 24.9902 11.0197 25.3002C10.9297 26.2402 10.9097 27.2 11.0097 28.14C11.0497 28.5 11.4897 28.82 11.7497 29.15C12.0197 28.83 12.3697 28.54 12.5497 28.17C12.6797 27.89 12.5997 27.51 12.6197 27.13C22.1897 34.05 35.3297 27.8801 36.1797 16.2601C37.6497 16.2601 39.1197 16.2601 40.6497 16.2601C40.6497 22.6601 40.6497 29.01 40.6497 35.42Z" fill="#BC2539"/>
</svg>
