<svg width="51" height="51" viewBox="0 0 51 51" fill="none" xmlns="http://www.w3.org/2000/svg">
<path d="M42.5498 37.1799C41.8398 37.2599 41.1298 37.42 40.4198 37.55C37.5998 38.09 34.7698 38.6299 31.9098 39.1699C31.1598 37.2299 29.6898 36.63 27.8098 36.72C27.1198 36.75 26.4298 36.7 25.7398 36.73C24.3698 36.78 23.3198 36.2201 22.5798 35.1001C21.4698 33.4101 19.9198 32.68 17.9098 32.73C15.8498 32.78 13.7898 32.74 11.6198 32.74C11.6198 32 11.6098 31.35 11.6198 30.71C11.6298 29.97 11.2698 29.6399 10.5398 29.6399C7.55977 29.6499 4.56977 29.6399 1.58977 29.6399C0.869767 29.6399 0.509766 29.96 0.509766 30.71C0.519766 37.01 0.519766 43.3001 0.509766 49.6001C0.509766 50.3501 0.859767 50.6599 1.58977 50.6599C4.56977 50.6499 7.55977 50.6499 10.5398 50.6599C11.2898 50.6599 11.6298 50.3301 11.6198 49.6001C11.6098 48.9201 11.6198 48.25 11.6198 47.54C11.9198 47.54 12.0798 47.52 12.2398 47.54C15.5498 48.03 18.8498 48.5 22.1498 49.01C24.6898 49.4 27.2498 49.8601 29.7098 48.8301C34.5398 46.8101 39.3498 44.7299 44.1498 42.6299C45.4898 42.0399 46.0898 40.61 45.7098 39.27C45.3398 37.92 43.9898 37.0099 42.5498 37.1799ZM9.96977 49.02C7.36977 49.02 4.78977 49.02 2.15977 49.02C2.15977 43.11 2.15977 37.23 2.15977 31.27C4.80977 31.27 7.34977 31.27 9.96977 31.27C9.96977 37.2 9.96977 43.08 9.96977 49.02ZM43.0898 41.3999C38.6398 43.3099 34.1798 45.2199 29.7398 47.1399C27.5598 48.0799 25.3498 47.9 23.0798 47.54C19.3298 46.93 15.5698 46.4301 11.6898 45.8701C11.6898 42.0001 11.6898 38.2101 11.6898 34.3601C14.1298 34.3601 16.5198 34.2399 18.8898 34.4299C19.6698 34.4899 20.5998 35.1801 21.0998 35.8501C22.3698 37.5401 23.9098 38.4401 26.0398 38.3301C26.8198 38.2901 27.6098 38.3101 28.3998 38.3301C29.5898 38.3701 30.3898 39.0299 30.3698 39.9399C30.3398 41.1399 29.6198 41.8999 28.3798 41.9099C25.0398 41.9399 21.6898 41.9099 18.3498 41.9299C17.7098 41.9299 16.7398 41.6699 16.7298 42.6799C16.7198 43.7699 17.7298 43.49 18.3898 43.49C21.5698 43.51 24.7498 43.47 27.9298 43.51C29.7198 43.53 31.0398 42.92 31.7698 41.2C31.8698 40.97 32.2198 40.75 32.4898 40.7C35.7698 40.06 39.0498 39.4501 42.3298 38.8201C43.1698 38.6601 43.8898 38.8199 44.1598 39.6899C44.4298 40.5699 43.8698 41.0699 43.0898 41.3999Z" fill="#BC2539"/>
<path d="M48.3395 0.659912C36.9295 0.659912 25.5195 0.659912 14.1095 0.659912C12.4295 0.659912 11.9395 1.15006 11.9395 2.81006C11.9395 9.60006 11.9395 16.3899 11.9395 23.1699C11.9395 24.8399 12.4095 25.3101 14.1095 25.3101C19.8195 25.3101 25.5195 25.3101 31.2295 25.3101C36.9695 25.3101 42.7095 25.3101 48.4495 25.3101C50.0095 25.3101 50.5195 24.8 50.5195 23.26C50.5195 16.44 50.5195 9.62005 50.5195 2.80005C50.5095 1.14005 50.0195 0.659912 48.3395 0.659912ZM48.8895 23.6699C37.1195 23.6699 25.3895 23.6699 13.5895 23.6699C13.5895 16.5799 13.5895 9.48006 13.5895 2.31006C25.3095 2.31006 37.0695 2.31006 48.8895 2.31006C48.8895 9.46006 48.8895 16.5299 48.8895 23.6699Z" fill="#BC2539"/>
<path d="M16.1099 19.1399C17.2199 19.2599 17.9499 19.92 18.0799 21.01C18.1999 22.03 18.7299 22.1999 19.6099 22.1899C23.4499 22.1599 27.2799 22.1799 31.1199 22.1799C35.0899 22.1799 39.0599 22.1699 43.0299 22.1899C43.7399 22.1899 44.1899 22.04 44.3099 21.21C44.5099 19.89 45.0799 19.3599 46.4299 19.1399C47.1799 19.0199 47.3799 18.6099 47.3799 17.9199C47.3599 14.6399 47.3599 11.3601 47.3799 8.08008C47.3799 7.39008 47.1999 6.96988 46.4199 6.87988C45.1999 6.73988 44.4499 6.01003 44.2999 4.78003C44.2099 4.03003 43.8299 3.80005 43.1199 3.80005C35.1799 3.81005 27.2499 3.81005 19.3099 3.80005C18.5999 3.80005 18.2199 4.04004 18.1299 4.79004C17.9799 6.02004 17.2299 6.73989 16.0099 6.88989C15.2399 6.97989 15.0499 7.40009 15.0599 8.09009C15.0799 11.3701 15.0799 14.6499 15.0599 17.9299C15.0599 18.6799 15.3299 19.0599 16.1099 19.1399ZM16.6899 8.42993C18.1899 7.96993 19.2499 6.98991 19.6799 5.40991C27.3899 5.40991 35.0499 5.40991 42.7699 5.40991C43.2399 6.99991 44.2299 7.95991 45.7599 8.40991C45.7599 11.4499 45.7599 14.4901 45.7599 17.5701C44.3499 18.0001 43.3599 18.87 42.8399 20.27C42.7799 20.44 42.3799 20.5901 42.1399 20.5901C34.8699 20.6101 27.5899 20.6101 20.3199 20.5901C20.0699 20.5901 19.6599 20.3999 19.5799 20.1899C19.0499 18.8399 18.0699 18.0001 16.6899 17.5801C16.6899 14.5201 16.6899 11.5199 16.6899 8.42993Z" fill="#BC2539"/>
<path d="M31.1293 18.77C34.3593 18.81 36.9693 16.26 36.9893 13.04C37.0093 9.83004 34.4093 7.18994 31.2193 7.18994C28.0693 7.18994 25.4793 9.77994 25.4493 12.9399C25.4293 16.1299 27.9693 18.74 31.1293 18.77ZM31.2693 8.78003C33.5793 8.81003 35.4193 10.69 35.4093 13.01C35.3993 15.33 33.5493 17.1799 31.2393 17.1899C28.8893 17.1899 27.0193 15.2899 27.0493 12.9299C27.0693 10.6199 28.9793 8.75003 31.2693 8.78003Z" fill="#BC2539"/>
<path d="M41.5296 15.6299C42.9696 15.6099 44.1496 14.42 44.1396 12.98C44.1296 11.55 42.9296 10.3501 41.4996 10.3401C40.0196 10.3301 38.8396 11.5501 38.8596 13.0601C38.8896 14.5201 40.0596 15.6499 41.5296 15.6299ZM40.2996 12.72C40.7096 12.46 41.0996 12.02 41.5296 11.97C42.1396 11.91 42.5496 12.3801 42.5196 13.0301C42.4896 13.6601 42.0896 14.1301 41.4496 14.0001C41.0196 13.9101 40.6596 13.46 40.2796 13.18C40.2896 13.03 40.2896 12.87 40.2996 12.72Z" fill="#BC2539"/>
<path d="M20.9794 15.6299C22.4394 15.6199 23.5794 14.4601 23.5794 12.9901C23.5794 11.5301 22.4194 10.3502 20.9694 10.3402C19.5494 10.3302 18.3294 11.52 18.2994 12.95C18.2694 14.41 19.4994 15.6399 20.9794 15.6299ZM20.9294 11.97C21.3594 12.02 21.7494 12.4701 22.1494 12.7401C22.1494 12.8901 22.1594 13.05 22.1594 13.2C21.7694 13.48 21.3994 13.9201 20.9694 14.0001C20.3394 14.1201 19.9394 13.6401 19.9194 13.0101C19.8994 12.3701 20.3194 11.9 20.9294 11.97Z" fill="#BC2539"/>
</svg>
