<svg width="51" height="48" viewBox="0 0 51 48" fill="none" xmlns="http://www.w3.org/2000/svg">
<path d="M50.0396 31.6202C48.7096 30.2702 47.3596 28.9402 46.0396 27.5902C45.7196 27.2702 45.4696 26.8701 45.2196 26.4901C44.9296 26.0501 44.9696 25.6901 45.3996 25.2901C46.4996 24.2501 47.5796 23.1802 48.6196 22.0802C50.4896 20.1102 49.6096 16.9 46.9996 16.16C46.6696 16.07 46.3296 16.0301 45.9996 15.9701C46.1696 13.7701 45.3996 12.1401 42.5296 11.5101C42.7596 9.1701 41.7696 7.63016 39.4096 7.07016C39.4596 6.92016 39.4996 6.82006 39.5296 6.72006C40.0696 4.95006 39.4996 3.32001 38.0296 2.42001C36.5896 1.54001 34.8296 1.80019 33.5196 3.10019C33.1996 3.42019 32.9396 3.80005 32.5996 4.21005C31.6796 3.33005 30.8896 2.59018 30.1196 1.84018C29.3796 1.12018 28.5596 0.52007 27.5196 0.480071C25.1696 0.400071 22.8196 0.350002 20.4696 0.410002C19.3596 0.440002 18.7196 1.37009 18.7696 2.50009C18.7896 2.95009 18.8596 3.38997 18.9096 3.87997C17.6196 3.84997 16.5596 4.29015 15.7696 5.31015C14.9896 6.32015 14.9596 7.48002 15.1896 8.68002C14.0496 8.87002 13.1196 9.3201 12.4996 10.2601C11.8896 11.1701 11.7296 12.1801 11.9896 13.2801C10.6596 13.3201 9.7096 13.8802 9.0296 14.8702C8.3396 15.8702 8.34961 16.9902 8.60961 18.1102C5.55961 18.8902 4.5496 21.1802 6.0296 23.8402C6.1196 24.0002 6.1896 24.1902 6.1896 24.3602C6.1596 25.6102 5.8596 26.75 4.90961 27.66C3.53961 28.97 2.23961 30.34 0.879606 31.67C0.389606 32.15 0.369606 32.5701 0.859606 33.0501C1.66961 33.8401 2.46961 34.6501 3.26961 35.4601C3.63961 35.8401 4.05961 36.12 4.51961 35.63C4.96961 35.14 4.65961 34.74 4.26961 34.38C3.58961 33.74 2.89961 33.1 2.15961 32.42C3.29961 31.3 4.2896 30.3002 5.2996 29.3302C6.3796 28.2902 7.3596 27.2001 7.5496 25.4901C8.7896 26.6101 10.0796 27.1501 11.6196 26.5601C13.1896 25.9701 13.8596 24.72 14.0196 23.13C15.1696 23.32 16.1696 23.11 17.0496 22.41C17.9196 21.71 18.2996 20.76 18.3996 19.64C20.8796 19.99 22.3396 18.8802 22.9696 16.5902C24.5796 17.1902 26.0296 17.0101 27.1696 15.7401C28.3996 14.3601 28.3596 12.8101 27.4396 11.2101C29.8396 8.82005 32.2196 6.42014 34.6296 4.05014C35.5796 3.11014 36.8096 3.12007 37.6696 3.98007C38.5296 4.85007 38.5096 6.0301 37.5596 7.0101C36.6196 7.9801 35.6596 8.92998 34.6996 9.88998C33.2696 11.33 31.8196 12.7501 30.4096 14.2101C30.1996 14.4201 30.0796 14.8302 30.1196 15.1202C30.1496 15.3002 30.5696 15.5701 30.7896 15.5501C31.0696 15.5301 31.3696 15.2902 31.5896 15.0802C33.5096 13.1802 35.4196 11.2602 37.3396 9.35019C38.3296 8.37019 39.6496 8.31004 40.4996 9.20004C41.3396 10.08 41.2596 11.3401 40.2896 12.3001C38.5096 14.0801 36.7296 15.85 34.9496 17.63C34.7996 17.78 34.5596 17.9302 34.5296 18.1102C34.4796 18.4202 34.4396 18.8801 34.6196 19.0501C34.7896 19.2201 35.2396 19.1602 35.5496 19.0902C35.7296 19.0502 35.8696 18.81 36.0196 18.66C37.6096 17.07 39.1896 15.48 40.7896 13.9C41.8396 12.87 43.0396 12.8 43.9396 13.69C44.8096 14.54 44.7296 15.8502 43.7396 16.8502C42.2896 18.3102 40.8396 19.76 39.3796 21.2101C39.0196 21.5701 38.6596 21.9801 39.1096 22.4601C39.5896 22.9801 40.0196 22.6501 40.4196 22.2601C41.7396 20.9401 43.0396 19.6001 44.3896 18.3101C44.7596 17.9601 45.2696 17.6601 45.7696 17.5501C46.6696 17.3401 47.5196 17.84 47.9196 18.64C48.3396 19.47 48.1796 20.43 47.4396 21.17C45.6096 23.01 43.7696 24.84 41.9296 26.68C41.5396 27.07 41.0796 27.4901 41.6396 28.0401C42.1696 28.5501 42.5896 28.1301 42.9396 27.7401C43.1896 27.4601 43.3696 27.1301 43.4796 26.9701C45.3196 28.8801 46.9796 30.61 48.6996 32.4C47.2496 33.84 45.8496 35.23 44.4596 36.63C43.0196 38.06 41.5896 39.5 40.1596 40.93C39.7996 41.29 39.6896 41.7601 40.1096 42.0401C40.3496 42.2001 40.8196 42.0301 41.1696 41.9701C41.2796 41.9501 41.3696 41.8 41.4696 41.7C44.3196 38.85 47.1696 36 50.0196 33.15C50.6696 32.53 50.6796 32.2602 50.0396 31.6202ZM11.3796 25.0802C10.6096 25.4902 9.8396 25.46 9.1896 24.89C8.4996 24.29 7.83961 23.64 7.24961 22.95C6.68961 22.3 6.65961 21.5101 7.0696 20.7501C7.4596 20.0501 8.0496 19.63 9.0096 19.67C9.0196 19.67 9.04961 19.67 9.07961 19.67C10.2596 19.73 12.4796 21.99 12.5096 23.16C12.5196 24.03 12.1496 24.6702 11.3796 25.0802ZM16.2996 21.16C15.4996 21.94 14.2296 21.94 13.3796 21.13C12.4096 20.19 11.4496 19.2401 10.5196 18.2701C9.87961 17.6001 9.74961 16.79 10.1296 15.95C10.4996 15.13 11.1696 14.74 12.1396 14.63C12.5796 14.85 13.0996 15.0002 13.4496 15.3202C14.4596 16.2502 15.4296 17.2301 16.3796 18.2301C17.1496 19.0701 17.0896 20.39 16.2996 21.16ZM21.2796 17.0301C20.9296 17.8201 20.3096 18.2301 19.1096 18.2801C18.8496 18.1401 18.2596 17.9702 17.8596 17.5902C16.5596 16.3802 15.3096 15.1002 14.0696 13.8202C13.1396 12.8602 13.1296 11.6401 13.9896 10.7901C14.8696 9.93013 16.0596 9.93997 17.0196 10.88C18.3196 12.15 19.5996 13.4301 20.8596 14.7201C21.4896 15.3701 21.6596 16.1601 21.2796 17.0301ZM25.4196 15.2701C24.5996 15.6501 23.8196 15.53 23.1696 14.92C22.3196 14.13 21.5196 13.2901 20.6896 12.4601C19.5396 11.3101 18.3896 10.1701 17.2496 9.02011C16.3296 8.09011 16.2996 6.85007 17.1296 5.98007C17.9496 5.13007 19.2596 5.13012 20.1696 6.03012C22.1296 7.97012 24.0896 9.90998 26.0096 11.89C26.3696 12.27 26.5296 12.8502 26.7796 13.3302C26.6296 14.2902 26.1996 14.9101 25.4196 15.2701ZM24.8496 8.03012C25.6296 7.98012 26.5096 8.78002 26.5696 9.93002C25.9696 9.26002 25.3196 8.54012 24.8496 8.03012ZM27.7296 8.72006C27.5196 8.33006 27.2596 7.95013 27.0996 7.54013C26.8696 6.96013 26.4596 6.75002 25.8596 6.68002C24.9496 6.57002 24.0396 6.42003 23.1596 6.19003C21.5496 5.77003 20.3596 4.24 20.2696 2.66C20.2396 2.08 20.3996 1.81016 21.0296 1.82016C22.9496 1.84016 24.8696 1.7702 26.7896 1.8602C27.4496 1.8902 28.1996 2.16015 28.7196 2.56015C29.6996 3.31015 30.5396 4.25019 31.4396 5.10019C30.1996 6.29019 29.0096 7.46006 27.7296 8.72006Z" fill="#BC2539"/>
<path d="M37.7498 43.3602C37.1398 44.0102 36.5398 44.6601 35.9398 45.3001C33.4798 43.3501 31.9398 40.5002 28.8098 39.5902C28.8998 39.5102 28.9298 39.46 28.9798 39.44C33.6898 37.46 36.9898 33.73 40.4798 30.23C40.8298 29.88 40.9698 29.4802 40.5598 29.1002C40.1698 28.7402 39.7698 28.85 39.4198 29.21C39.3598 29.27 39.3098 29.33 39.2498 29.38C37.8698 30.76 36.5298 32.1701 35.1098 33.5001C31.8498 36.5501 28.1798 38.8302 23.6198 39.3502C21.5698 39.5802 19.8798 40.4701 18.4798 41.9901C17.4398 43.1201 16.3398 44.19 15.1498 45.41C14.7298 44.92 14.4198 44.52 14.0598 44.15C11.6598 41.73 9.23977 39.33 6.83977 36.91C6.44977 36.52 6.02977 36.29 5.57977 36.73C5.13977 37.16 5.40977 37.56 5.76977 37.92C8.65977 40.81 11.5398 43.7001 14.4398 46.5801C15.0798 47.2201 15.3598 47.2101 15.9998 46.5801C17.2298 45.3601 18.4698 44.15 19.6598 42.89C20.7898 41.69 22.1298 40.9401 23.7598 40.8201C24.9298 40.7301 26.1198 40.7401 27.2898 40.8201C28.8898 40.9301 30.2198 41.6401 31.3298 42.8201C32.5598 44.1201 33.8598 45.3402 35.1098 46.6202C35.6498 47.1702 36.1098 47.1302 36.6198 46.6102C37.3498 45.8502 38.0998 45.1002 38.8498 44.3602C39.2398 43.9802 39.4798 43.5502 39.0298 43.1102C38.5198 42.6602 38.1098 42.9802 37.7498 43.3602Z" fill="#BC2539"/>
</svg>
