<svg width="43" height="43" viewBox="0 0 43 43" fill="none" xmlns="http://www.w3.org/2000/svg">
<path d="M0.210022 8.65008C0.550022 7.78008 1.21002 7.45006 2.13002 7.50006C2.84002 7.54006 3.56001 7.51007 4.28001 7.51007C5.19001 7.51007 5.66001 7.88007 5.93001 8.76007C5.96001 8.85007 6.08002 8.97003 6.16002 8.97003C7.37002 8.98003 8.58001 8.98004 9.79001 8.98004C9.90001 8.98004 10 8.97008 10.15 8.96008C10.22 8.18008 10.3 7.42008 10.36 6.65008C10.51 4.96008 10.65 3.28009 10.79 1.59009C10.83 1.08009 11.05 0.910065 11.56 0.880065C12.55 0.820065 13.47 1.01006 14.4 1.38006C20.61 3.88006 26.83 6.34004 33.06 8.79004C33.52 8.97004 34.08 8.95003 34.59 8.97003C34.95 8.98003 35.21 9.10007 35.43 9.39007C36.17 10.3701 36.93 11.33 37.68 12.29C37.87 12.54 37.99 12.7901 37.84 13.0901C37.69 13.3901 37.41 13.4401 37.1 13.4401C35.97 13.4301 34.84 13.4401 33.65 13.4401C33.65 13.5901 33.65 13.72 33.65 13.85C33.65 15.89 33.64 17.9201 33.66 19.9601C33.66 20.1601 33.77 20.4101 33.91 20.5601C35.42 22.0901 36.94 23.6001 38.45 25.1301C38.66 25.3401 38.86 25.4601 39.17 25.4301C39.4 25.4001 39.64 25.4201 39.87 25.4301C40.59 25.4501 41.05 25.9001 41.07 26.6301C41.08 27.0501 41.07 27.48 41.07 27.92C41.22 27.94 41.34 27.96 41.46 27.98C42.04 28.08 42.45 28.52 42.47 29.11C42.49 29.52 42.49 29.94 42.47 30.35C42.45 30.96 42.03 31.41 41.42 31.49C41.27 31.51 41.12 31.5101 40.97 31.5101C36.9 31.5101 32.82 31.5101 28.75 31.5101C28.08 31.5101 27.78 31.3101 27.78 30.8801C27.78 30.4501 28.08 30.2501 28.75 30.2501C32.71 30.2501 36.68 30.2501 40.64 30.2501C40.82 30.2501 41 30.2501 41.2 30.2501C41.2 29.9001 41.2 29.58 41.2 29.23C35.58 29.23 29.97 29.23 24.33 29.23C24.33 29.54 24.33 29.8601 24.33 30.2501C24.79 30.2501 25.25 30.2401 25.71 30.2601C25.91 30.2701 26.15 30.3 26.28 30.42C26.42 30.55 26.54 30.83 26.49 30.99C26.43 31.1901 26.19 31.45 26.01 31.47C25.33 31.52 24.63 31.5201 23.95 31.4601C23.44 31.4101 23.08 30.94 23.05 30.42C23.03 30.02 23.03 29.62 23.04 29.22C23.05 28.46 23.48 28.0201 24.23 27.9601C24.41 27.9501 24.58 27.9401 24.8 27.9301C24.8 27.5001 24.79 27.0901 24.8 26.6801C24.81 25.8901 25.28 25.3701 26.07 25.4501C26.93 25.5401 27.49 25.2 28.06 24.6C29.4 23.18 30.81 21.8301 32.19 20.4401C32.28 20.3501 32.38 20.22 32.38 20.11C32.39 17.91 32.39 15.71 32.39 13.48C30.24 13.48 28.12 13.48 25.95 13.48C25.95 14.42 25.95 15.3501 25.95 16.2801C25.95 16.5001 25.94 16.7201 25.89 16.9301C25.72 17.6501 25.12 18.15 24.37 18.16C22.75 18.17 21.12 18.18 19.5 18.16C18.62 18.15 17.95 17.4501 17.94 16.5601C17.93 15.5401 17.94 14.53 17.94 13.48C16.79 13.48 15.67 13.48 14.49 13.48C14.74 21.65 14.98 29.8301 15.23 38.0701C15.6 38.0701 15.97 38.0701 16.33 38.0701C17.75 38.0701 18.68 39 18.69 40.42C18.69 40.9 18.7 41.3801 18.69 41.8701C18.68 42.3101 18.46 42.54 18.03 42.54C15.57 42.55 13.1 42.55 10.64 42.54C10.23 42.54 9.96002 42.28 9.96002 41.92C9.96002 41.56 10.24 41.3 10.68 41.3C12.77 41.3 14.86 41.3 16.96 41.3C17.11 41.3 17.26 41.3 17.45 41.3C17.45 40.9 17.48 40.53 17.44 40.17C17.39 39.65 16.97 39.3201 16.4 39.3201C15.12 39.3101 13.84 39.3201 12.56 39.3201C11.29 39.3201 10.03 39.3201 8.76001 39.3201C7.98001 39.3201 7.62002 39.6801 7.61002 40.4501C7.60002 40.7201 7.61002 40.9901 7.61002 41.3101C7.81002 41.3101 7.98001 41.3001 8.14001 41.3101C8.49002 41.3501 8.73002 41.6101 8.72002 41.9401C8.71002 42.2701 8.47002 42.52 8.11002 42.54C7.75002 42.56 7.39001 42.55 7.04001 42.54C6.60001 42.53 6.38001 42.3201 6.37001 41.8701C6.35001 41.3101 6.34002 40.7401 6.38002 40.1801C6.46002 38.9401 7.39001 38.0801 8.64001 38.0701C8.80001 38.0701 8.97001 38.0701 9.17001 38.0701C9.42001 29.8601 9.66002 21.68 9.91002 13.47C8.58002 13.47 7.29001 13.47 5.98001 13.47C5.95001 13.62 5.93001 13.77 5.89001 13.91C5.72001 14.51 5.20002 14.9401 4.55002 14.9601C3.57002 14.9901 2.60001 14.9801 1.62001 14.9601C0.89001 14.9501 0.510016 14.4501 0.220016 13.8701C0.210016 12.1201 0.210022 10.3801 0.210022 8.65008ZM5.96002 12.1401C15.98 12.1401 25.96 12.1401 36 12.1401C35.55 11.5601 35.14 11.0501 34.75 10.5201C34.58 10.2801 34.39 10.2101 34.1 10.2101C29.87 10.2201 25.65 10.22 21.42 10.22C21.26 10.22 21.08 10.2301 20.93 10.1901C20.61 10.1101 20.43 9.88005 20.46 9.55005C20.49 9.23005 20.68 9.02004 21.01 8.98004C21.15 8.96004 21.28 8.97003 21.42 8.97003C24.12 8.97003 26.81 8.97003 29.51 8.97003C29.64 8.97003 29.76 8.97003 29.89 8.97003C29.89 8.94003 29.89 8.91006 29.9 8.88006C24.51 6.74006 19.12 4.60006 13.69 2.44006C13.88 4.65006 14.07 6.79008 14.26 8.96008C14.44 8.96008 14.58 8.96008 14.73 8.96008C16 8.96008 17.26 8.96008 18.53 8.96008C18.94 8.96008 19.21 9.23008 19.2 9.58008C19.19 9.92008 18.94 10.1701 18.55 10.2001C18.43 10.2101 18.3 10.2001 18.18 10.2001C14.27 10.2001 10.36 10.2001 6.45001 10.2001C6.29001 10.2001 6.13002 10.2001 5.96002 10.2001C5.96002 10.8801 5.96002 11.5001 5.96002 12.1401ZM24.72 13.4501C22.86 13.4501 21.04 13.4501 19.2 13.4501C19.2 14.4801 19.2 15.48 19.2 16.48C19.2 16.75 19.36 16.8901 19.62 16.8901C21.17 16.8901 22.73 16.8901 24.28 16.8901C24.54 16.8901 24.72 16.7601 24.72 16.5001C24.73 15.4901 24.72 14.4801 24.72 13.4501ZM39.82 26.6801C35.22 26.6801 30.65 26.6801 26.1 26.6801C26.1 27.1101 26.1 27.5001 26.1 27.8901C30.69 27.8901 35.24 27.8901 39.82 27.8901C39.82 27.4801 39.82 27.1001 39.82 26.6801ZM1.45001 11.2101C1.45001 11.9101 1.46001 12.6101 1.45001 13.3201C1.45001 13.6001 1.56001 13.72 1.84001 13.72C2.65001 13.71 3.46001 13.71 4.28001 13.72C4.58001 13.72 4.70001 13.6201 4.70001 13.3101C4.69001 11.9301 4.69001 10.5601 4.70001 9.18005C4.70001 8.85005 4.56002 8.75006 4.25002 8.75006C3.47002 8.76006 2.68001 8.76006 1.90001 8.75006C1.59001 8.75006 1.45002 8.86006 1.46002 9.19006C1.46002 9.86006 1.45001 10.5301 1.45001 11.2101ZM13.71 28.2601C13.68 28.2501 13.65 28.24 13.62 28.23C12.79 29.27 11.95 30.3101 11.11 31.3701C12.03 32.0401 12.91 32.67 13.86 33.36C13.8 31.59 13.76 29.9301 13.71 28.2601ZM11.99 2.13006C11.79 4.42006 11.6 6.67005 11.4 8.93005C11.97 8.93005 12.47 8.93005 13 8.93005C12.8 6.64005 12.6 4.39006 12.4 2.13006C12.26 2.13006 12.15 2.13006 11.99 2.13006ZM10.43 37.5301C10.46 37.5401 10.5 37.55 10.53 37.55C11.38 36.49 12.23 35.4301 13.1 34.3401C12.27 33.7401 11.47 33.1601 10.58 32.5201C10.52 34.2601 10.47 35.8901 10.43 37.5301ZM32.4 22.2001C31.35 23.2501 30.26 24.3401 29.22 25.3701C30.21 25.3701 31.3 25.3701 32.4 25.3701C32.4 24.2601 32.4 23.1801 32.4 22.2001ZM33.7 22.1501C33.7 23.2501 33.7 24.3201 33.7 25.3701C34.79 25.3701 35.85 25.3701 36.91 25.3701C35.83 24.2901 34.77 23.2301 33.7 22.1501ZM10.66 29.7801C10.69 29.7901 10.72 29.8101 10.75 29.8201C11.53 28.8501 12.3 27.8801 13.1 26.8901C12.32 26.3301 11.59 25.8 10.8 25.23C10.74 26.82 10.7 28.3001 10.66 29.7801ZM13.49 21.1801C13.46 21.1701 13.43 21.1601 13.4 21.1501C12.7 22.1101 12.01 23.0701 11.29 24.0601C12.05 24.6101 12.79 25.1501 13.61 25.7501C13.58 24.1501 13.54 22.6601 13.49 21.1801ZM10.96 22.4001C11.6 21.5201 12.23 20.64 12.88 19.74C12.26 19.29 11.67 18.8601 11.07 18.4401C11.03 18.4601 10.99 18.48 10.95 18.49C10.96 19.78 10.96 21.0701 10.96 22.4001ZM13.33 18.5301C13.33 17.3001 13.33 16.1 13.33 14.91C13.29 14.9 13.25 14.9001 13.21 14.8901C12.64 15.6501 12.06 16.4101 11.47 17.2001C12.12 17.6601 12.73 18.1001 13.33 18.5301ZM13.92 38.04C13.92 37.17 13.92 36.3 13.92 35.3C13.15 36.2701 12.46 37.13 11.74 38.04C12.53 38.04 13.23 38.04 13.92 38.04ZM11.14 15.5601C11.68 14.8401 12.19 14.1701 12.73 13.4401C12.16 13.4401 11.67 13.4401 11.14 13.4401C11.14 14.1301 11.14 14.8101 11.14 15.5601Z" fill="#BC2539"/>
</svg>
