<svg width="43" height="43" viewBox="0 0 43 43" fill="none" xmlns="http://www.w3.org/2000/svg">
<path d="M21.45 0.950069C10.25 0.820069 0.390012 10.1801 0.490012 21.4501C0.610012 34.5701 9.88 42.4901 21.28 42.6201C32.32 42.6101 42.04 35.0401 42.21 21.7501C42.37 10.0701 32.85 1.08007 21.45 0.950069ZM21.36 40.5801C10.75 40.4801 2.55 32.16 2.67 21.61C2.79 11.14 11.02 3.04003 21.44 3.16003C32.34 3.28003 40.16 11.4101 40.07 22.5301C39.98 32.3601 31.36 40.6701 21.36 40.5801Z" fill="#BC2539"/>
<path d="M36.42 20.13C36.42 17.17 35.38 16.16 32.38 16.18C30.64 16.19 28.91 16.18 27.08 16.18C27.08 14.02 27.12 12.1 27.07 10.17C27.01 7.97996 25.76 6.78997 23.58 6.74997C22.25 6.72997 20.92 6.72996 19.59 6.73996C16.82 6.74996 15.68 7.87998 15.65 10.63C15.63 12.42 15.65 14.22 15.65 16.18C13.56 16.18 11.6 16.16 9.63999 16.19C7.50999 16.22 6.32999 17.41 6.28999 19.56C6.26999 21.02 6.28999 22.47 6.28999 23.93C6.29999 26.34 7.49999 27.54 9.92999 27.56C11.77 27.57 13.6 27.56 15.63 27.56C15.63 29.63 15.61 31.51 15.64 33.39C15.67 35.67 16.88 36.87 19.14 36.9C20.51 36.92 21.88 36.9199 23.26 36.9099C25.92 36.8899 27.06 35.74 27.07 33.05C27.08 31.26 27.07 29.48 27.07 27.55C29.09 27.55 30.96 27.57 32.83 27.55C35.19 27.52 36.39 26.32 36.41 23.99C36.44 22.7 36.42 21.41 36.42 20.13ZM32.66 25.4699C31.63 25.4499 30.6 25.4699 29.57 25.4699V25.48C28.54 25.48 27.51 25.5299 26.48 25.4699C25.34 25.3999 24.95 25.94 24.97 27.01C25 28.94 24.99 30.87 24.97 32.8C24.95 34.61 24.74 34.82 22.98 34.82C21.78 34.82 20.58 34.77 19.38 34.82C18.19 34.87 17.77 34.31 17.79 33.2C17.82 31.23 17.81 29.25 17.81 27.28C17.81 25.7 17.6 25.49 16.05 25.48C14.08 25.48 12.1 25.49 10.13 25.48C8.76 25.47 8.39999 25.09 8.38999 23.71C8.37999 22.42 8.38999 21.1399 8.36999 19.8499C8.34999 18.7899 8.81999 18.27 9.91999 18.29C11.98 18.32 14.04 18.27 16.1 18.31C17.3 18.33 17.83 17.84 17.81 16.64C17.78 14.62 17.79 12.61 17.81 10.59C17.82 9.17 18.14 8.86995 19.57 8.84995C20.81 8.82995 22.06 8.87995 23.3 8.84995C24.5 8.82995 25 9.37998 24.98 10.57C24.94 12.59 25.01 14.6 24.95 16.62C24.92 17.83 25.4 18.34 26.61 18.31C28.67 18.26 30.73 18.31 32.79 18.28C33.87 18.26 34.38 18.7 34.36 19.8C34.33 21.13 34.33 22.46 34.37 23.79C34.42 25.01 33.81 25.4899 32.66 25.4699Z" fill="#BC2539"/>
</svg>
