<svg width="43" height="42" viewBox="0 0 43 42" fill="none" xmlns="http://www.w3.org/2000/svg">
<path d="M27.85 35.2102C26.55 30.5502 25.25 25.8902 23.94 21.2302C23.37 19.1902 22.78 17.1602 22.18 15.1302C21.99 14.4902 21.24 14.2102 20.8 14.6202C20.58 14.8302 20.48 15.2002 20.39 15.5102C19.6 18.2602 18.82 21.0102 18.05 23.7602C16.52 29.2202 15 34.6802 13.49 40.1502C13.16 41.3502 13.37 41.6202 14.61 41.6302C16.84 41.6502 19.08 41.6302 21.31 41.6302C21.31 41.6402 21.31 41.6502 21.31 41.6702C21.81 41.6702 22.3 41.6702 22.8 41.6702C24.63 41.6602 26.45 41.6602 28.28 41.6202C29.27 41.6002 29.48 41.2902 29.23 40.3402C28.79 38.6402 28.33 36.9202 27.85 35.2102ZM25.82 34.6002C23.66 34.6002 21.6 34.6002 19.54 34.6002C19.52 34.5602 19.5 34.5302 19.47 34.4902C21.24 33.4302 23 32.3802 24.88 31.2502C25.21 32.4302 25.51 33.4802 25.82 34.6002ZM21.26 18.8502C21.32 18.8402 21.37 18.8402 21.43 18.8302C22.39 22.2902 23.35 25.7502 24.34 29.2902C22.3 29.2902 20.37 29.2902 18.34 29.2902C19.32 25.8002 20.29 22.3302 21.26 18.8502ZM17.8 31.3302C17.83 31.2302 18.04 31.1302 18.16 31.1302C19.21 31.1102 20.27 31.1202 21.32 31.1202C21.34 31.1802 21.35 31.2402 21.37 31.3002C20.01 32.1202 18.64 32.9302 17.08 33.8702C17.35 32.8902 17.56 32.1002 17.8 31.3302ZM15.57 39.2702C15.86 38.1902 16.1 37.3102 16.35 36.4202C18.23 36.4202 20.07 36.4202 21.9 36.4202C21.92 36.4602 21.93 36.5002 21.95 36.5402C19.89 37.4102 17.83 38.3002 15.57 39.2702ZM18.92 39.8902C18.91 39.8602 18.89 39.8202 18.88 39.7902C21.34 38.7402 23.79 37.6902 26.37 36.5902C26.7 37.7302 27 38.7802 27.32 39.8902C24.47 39.8902 21.7 39.8902 18.92 39.8902Z" fill="#BC2539"/>
<path d="M7.14002 28.4101C4.11002 25.1301 2.37001 21.2501 2.04001 16.8201C1.62001 11.1901 3.34002 6.25009 7.14002 2.05009C7.35002 1.82009 7.66002 1.59011 7.72002 1.32011C7.79002 0.990111 7.77002 0.530133 7.58002 0.280133C7.33002 -0.0498666 6.87002 -0.0898959 6.50002 0.250104C6.25002 0.480104 6.00003 0.710116 5.77003 0.950116C2.10003 4.97012 0.280022 9.71012 0.220022 15.1401C0.170022 18.8401 1.00003 22.3301 2.88003 25.4901C3.85003 27.1201 5.13002 28.5701 6.30002 30.0801C6.65002 30.5201 7.16003 30.6301 7.60003 30.1901C8.02003 29.7701 7.93002 29.2901 7.55002 28.8601C7.41002 28.7101 7.27002 28.5601 7.14002 28.4101Z" fill="#BC2539"/>
<path d="M39.54 4.51018C38.6 3.01018 37.38 1.70018 36.26 0.32018C35.94 -0.0798205 35.47 -0.0498278 35.11 0.250172C34.75 0.560172 34.7 0.990197 34.99 1.4002C35.16 1.6402 35.37 1.85018 35.56 2.07018C39.44 6.37018 41.13 11.4102 40.59 17.1802C40.19 21.4902 38.46 25.1902 35.58 28.3902C35.33 28.6702 35.02 28.9602 34.91 29.3002C34.83 29.5502 34.94 30.0002 35.13 30.1802C35.33 30.3602 35.74 30.4002 36.03 30.3402C36.26 30.2902 36.46 30.0302 36.64 29.8302C40.48 25.7602 42.4 20.9102 42.49 15.5302C42.46 11.4602 41.6 7.79018 39.54 4.51018Z" fill="#BC2539"/>
<path d="M10.64 24.3901C6.91002 19.7101 6.22002 14.5901 8.69002 9.15012C9.31002 7.78012 10.4 6.63007 11.24 5.35007C11.42 5.08007 11.59 4.68011 11.53 4.39011C11.37 3.67011 10.58 3.57007 10 4.17007C7.02002 7.27007 5.54002 10.9801 5.50002 15.2701C5.47002 17.7501 5.97002 20.1401 7.17002 22.2901C7.94002 23.6701 8.95002 24.9301 9.92002 26.1901C10.4 26.8101 10.92 26.8401 11.32 26.4801C11.72 26.1101 11.69 25.6601 11.2 25.0501C11.02 24.8401 10.82 24.6201 10.64 24.3901Z" fill="#BC2539"/>
<path d="M35.87 8.88009C35.08 7.12009 34.04 5.52011 32.67 4.15011C32.28 3.76011 31.85 3.57011 31.37 4.02011C30.89 4.47011 31.06 4.9101 31.41 5.3301C31.68 5.6601 31.97 5.98008 32.24 6.31008C36.28 11.3301 36.52 18.1101 32.81 23.3901C32.35 24.0501 31.79 24.6501 31.3 25.2901C30.97 25.7101 31 26.1501 31.4 26.5001C31.78 26.8301 32.2 26.7501 32.56 26.4301C32.76 26.2501 32.95 26.0501 33.13 25.8501C35.82 22.8001 37.17 19.2401 37.21 15.8001C37.19 12.9901 36.78 10.8801 35.87 8.88009Z" fill="#BC2539"/>
<path d="M10.64 15.2201C10.9 16.4401 11.08 17.6901 11.45 18.8801C11.89 20.2901 12.71 21.5101 13.75 22.5801C14.14 22.9801 14.58 23.1401 15.06 22.7501C15.48 22.4101 15.46 21.9101 15.03 21.3701C14.9 21.2101 14.76 21.0701 14.63 20.9101C12.47 18.2301 11.95 15.2301 13.2 12.0401C13.63 10.9401 14.49 10.0002 15.1 8.96015C15.26 8.69015 15.34 8.25012 15.22 7.99012C15.11 7.76012 14.69 7.53011 14.42 7.54011C14.14 7.56011 13.82 7.82012 13.61 8.05012C11.79 10.0701 10.77 12.4101 10.82 15.1701C10.76 15.2001 10.7 15.2101 10.64 15.2201Z" fill="#BC2539"/>
<path d="M27.45 21.7401C27.41 22.0701 27.48 22.5301 27.69 22.7401C27.87 22.9101 28.34 22.8701 28.65 22.7901C28.86 22.7401 29.03 22.4901 29.19 22.3001C30.98 20.2801 31.89 17.9201 31.9 15.2201C31.89 13.5701 31.64 12.3401 30.95 10.8301C30.4 9.63014 29.7 8.53009 28.63 7.72009C28.42 7.56009 27.87 7.5701 27.7 7.7301C27.49 7.9301 27.43 8.38009 27.44 8.72009C27.45 8.92009 27.69 9.13012 27.86 9.31012C30.88 12.7601 30.92 17.5502 27.95 21.0302C27.77 21.2702 27.48 21.4901 27.45 21.7401Z" fill="#BC2539"/>
</svg>
