<svg width="42" height="42" viewBox="0 0 42 42" fill="none" xmlns="http://www.w3.org/2000/svg">
<path d="M40.87 24.9401C40.59 24.6701 40.45 24.36 40.45 23.97C40.46 21.95 40.46 19.93 40.45 17.91C40.45 17.52 40.58 17.2001 40.86 16.9301C41.83 15.9901 41.99 14.9301 41.32 13.7701C40.06 11.5901 38.8 9.40003 37.53 7.22003C36.88 6.11003 35.85 5.69006 34.62 6.06006C34.23 6.18006 33.88 6.15006 33.52 5.94006C31.77 4.93006 30.01 3.93009 28.27 2.90009C28.02 2.75009 27.75 2.47008 27.69 2.21008C27.45 1.08008 26.79 0.390088 25.69 0.0900879C22.78 0.0900879 19.87 0.0900879 16.96 0.0900879C16.93 0.110088 16.9 0.150034 16.86 0.160034C15.87 0.430034 15.28 1.06006 15.07 2.06006C14.99 2.46006 14.75 2.74006 14.4 2.94006C12.67 3.93006 10.94 4.93005 9.22001 5.93005C8.84001 6.15005 8.47001 6.18006 8.05001 6.06006C6.89001 5.71006 5.84001 6.12003 5.22001 7.16003C4.80001 7.86003 4.40001 8.57008 4.00001 9.27008C3.75001 9.70008 3.8 10.03 4.12 10.23C4.46 10.44 4.8 10.3201 5.06 9.88007C5.46 9.20007 5.84001 8.52009 6.24001 7.84009C6.61001 7.21009 7.06001 7.03005 7.75001 7.24005C8.50001 7.46005 9.19001 7.37003 9.86001 6.97003C11.55 5.99003 13.24 5.01004 14.94 4.04004C15.64 3.64004 16.1 3.09004 16.28 2.29004C16.43 1.61004 16.84 1.31006 17.54 1.31006C20.08 1.31006 22.62 1.31006 25.16 1.31006C25.88 1.31006 26.27 1.61006 26.44 2.31006C26.61 3.05006 27.03 3.60004 27.69 3.98004C29.43 4.98004 31.17 5.98005 32.91 6.99005C33.56 7.37005 34.23 7.44004 34.95 7.23004C35.65 7.02004 36.11 7.20007 36.47 7.82007C37.75 10.0201 39.03 12.2301 40.3 14.4401C40.64 15.0401 40.57 15.5401 40.06 16.0101C39.49 16.5401 39.23 17.19 39.23 17.97C39.24 19.95 39.24 21.93 39.23 23.91C39.23 24.67 39.48 25.3101 40.04 25.8301C40.58 26.3401 40.64 26.82 40.27 27.47C39.02 29.64 37.76 31.81 36.5 33.98C36.11 34.65 35.68 34.83 34.93 34.61C34.23 34.41 33.56 34.48 32.93 34.85C31.18 35.86 29.43 36.8701 27.67 37.8801C27.02 38.2501 26.61 38.7901 26.44 39.5201C26.27 40.2501 25.89 40.54 25.14 40.54C22.63 40.54 20.11 40.54 17.6 40.54C16.82 40.54 16.44 40.2501 16.26 39.5001C16.09 38.7801 15.69 38.2501 15.06 37.8901C13.31 36.8801 11.56 35.87 9.81 34.86C9.16 34.49 8.49001 34.4101 7.77001 34.6201C7.06001 34.8301 6.61 34.6501 6.23 34.0001C4.96 31.8201 3.70001 29.6401 2.44001 27.4501C2.07001 26.8001 2.13 26.3301 2.68 25.8201C3.23 25.3101 3.49001 24.6801 3.49001 23.9401C3.49001 21.9301 3.49001 19.93 3.49001 17.92C3.49001 17.18 3.23 16.55 2.68 16.04C2.13 15.53 2.07 15.0601 2.45 14.4001C2.87 13.6701 3.29001 12.95 3.71001 12.22C3.95001 11.8 3.90001 11.4601 3.57001 11.2601C3.23001 11.0501 2.90001 11.1801 2.64001 11.6201C2.21001 12.3601 1.78001 13.1001 1.36001 13.8401C0.740007 14.9401 0.890014 16.0301 1.82001 16.9001C2.13001 17.1901 2.28001 17.5301 2.28001 17.9401C2.28001 19.9301 2.28001 21.93 2.28001 23.92C2.28001 24.34 2.13001 24.6701 1.82001 24.9601C0.880014 25.8401 0.730012 26.93 1.38001 28.05C2.64001 30.25 3.91001 32.4401 5.19001 34.6301C5.84001 35.7401 6.87001 36.15 8.10001 35.79C8.49001 35.68 8.84001 35.71 9.19001 35.91C10.94 36.92 12.69 37.9301 14.45 38.9401C14.79 39.1301 14.99 39.42 15.08 39.79C15.4 41.08 16.25 41.7501 17.56 41.7501C20.09 41.7501 22.62 41.7501 25.14 41.7501C26.45 41.7501 27.33 41.07 27.63 39.8C27.73 39.4 27.94 39.12 28.29 38.92C30.03 37.92 31.77 36.92 33.51 35.91C33.86 35.71 34.21 35.67 34.6 35.79C35.84 36.16 36.87 35.7501 37.52 34.6401C38.8 32.4501 40.06 30.2601 41.33 28.0601C41.99 26.9301 41.83 25.8601 40.87 24.9401Z" fill="#BC2539"/>
<path d="M7.67998 20.91C7.65998 28.43 13.8 34.58 21.35 34.59C28.86 34.61 34.99 28.51 35.03 20.96C35.08 13.47 28.9 7.29004 21.36 7.28004C13.85 7.27004 7.69998 13.4 7.67998 20.91ZM21.36 8.50001C28.22 8.51001 33.8 14.08 33.8 20.93C33.81 27.77 28.22 33.35 21.36 33.37C14.52 33.38 8.89999 27.8 8.88999 20.96C8.88999 14.11 14.5 8.49001 21.36 8.50001Z" fill="#BC2539"/>
<path d="M21.64 5.81003C24.38 5.88003 26.94 6.60001 29.27 8.04001C29.72 8.32001 30.13 8.66001 30.59 8.92001C30.76 9.02001 31.04 9.04 31.23 8.97C31.4 8.91 31.5 8.68005 31.68 8.46005C31.48 8.22005 31.36 8.00001 31.17 7.85001C28.96 6.18001 26.48 5.15004 23.75 4.76004C22.97 4.65004 22.18 4.62006 21.4 4.59006C21 4.57006 20.73 4.87005 20.75 5.21005C20.76 5.55005 21.01 5.77002 21.4 5.80002C21.48 5.81002 21.56 5.81003 21.64 5.81003Z" fill="#BC2539"/>
<path d="M6.31 24.8301C5.77 24.8301 5.53001 25.21 5.69001 25.73C6.19001 27.38 6.94 28.9 7.93 30.3C8.89 31.67 10.04 32.8801 11.38 33.9001C11.79 34.2201 12.26 34.1201 12.41 33.6901C12.52 33.3501 12.35 33.14 12.11 32.92C11.34 32.21 10.54 31.5401 9.85001 30.7601C8.46001 29.2101 7.49 27.4 6.87 25.41C6.77 25.08 6.62 24.8401 6.31 24.8301Z" fill="#BC2539"/>
<path d="M14.69 22.0502C16.08 22.0502 17.46 22.0502 18.85 22.0402C18.99 22.0402 19.13 22.0402 19.33 22.0402C18.92 23.0302 18.54 23.9402 18.17 24.8502C17.53 26.3702 16.89 27.9002 16.26 29.4202C16.05 29.9302 16.27 30.3802 16.75 30.3602C16.94 30.3502 17.17 30.2302 17.31 30.0902C19.54 27.9002 21.75 25.7002 23.96 23.5002C24.03 23.4302 24.1 23.3602 24.14 23.2802C24.29 23.0102 24.27 22.7502 24.04 22.5402C23.82 22.3202 23.55 22.3102 23.29 22.4702C23.18 22.5402 23.08 22.6502 22.99 22.7402C21.65 24.0702 20.31 25.4002 18.97 26.7302C18.87 26.8302 18.76 26.9302 18.65 27.0302C18.93 26.1702 19.27 25.3602 19.61 24.5502C20 23.6102 20.4 22.6802 20.78 21.7402C20.99 21.2202 20.74 20.8502 20.19 20.8202C20.07 20.8102 19.95 20.8202 19.82 20.8202C18.4 20.8202 16.97 20.8202 15.5 20.8202C15.54 20.7102 15.56 20.6602 15.58 20.6202C16.98 18.0602 18.37 15.5102 19.79 12.9602C19.86 12.8302 20.08 12.7202 20.22 12.7102C21.63 12.6902 23.05 12.7002 24.46 12.7002C24.56 12.7002 24.66 12.7202 24.8 12.7302C24.68 12.9202 24.59 13.0702 24.49 13.2102C23.48 14.7302 22.46 16.2602 21.44 17.7802C21.26 18.0602 21.06 18.3302 21.25 18.6702C21.43 19.0102 21.75 18.9902 22.07 18.9802C23.5 18.9802 24.92 18.9802 26.35 18.9802C26.46 18.9802 26.57 19.0002 26.76 19.0102C26.25 19.5102 25.8 19.9402 25.37 20.3902C25.27 20.4902 25.12 20.6402 25.13 20.7402C25.15 20.9702 25.21 21.2602 25.37 21.4102C25.62 21.6402 25.93 21.5502 26.17 21.3102C26.96 20.5302 27.75 19.7402 28.54 18.9602C28.77 18.7302 28.97 18.4902 28.82 18.1402C28.67 17.7902 28.37 17.7502 28.04 17.7502C26.5 17.7502 24.97 17.7502 23.43 17.7502C23.29 17.7502 23.15 17.7402 22.95 17.7302C23.06 17.5602 23.13 17.4302 23.21 17.3102C24.26 15.7302 25.31 14.1502 26.37 12.5702C26.54 12.3202 26.67 12.0802 26.51 11.7802C26.35 11.4802 26.08 11.4602 25.78 11.4602C23.78 11.4602 21.79 11.4702 19.79 11.4502C19.35 11.4502 19.1 11.6102 18.89 11.9902C17.27 14.9702 15.64 17.9302 14.02 20.9102C13.64 21.6302 13.89 22.0502 14.69 22.0502Z" fill="#BC2539"/>
</svg>
