<svg width="21" height="21" viewBox="0 0 21 21" fill="none" xmlns="http://www.w3.org/2000/svg">
<path d="M10.3804 0.819946C15.9204 0.829946 20.3704 5.28997 20.3604 10.84C20.3604 16.36 15.8804 20.8299 10.3804 20.8199C4.79037 20.8099 0.350368 16.35 0.360368 10.77C0.380368 5.26002 4.86037 0.819946 10.3804 0.819946ZM7.44037 13.26C7.03037 12.71 6.62037 12.17 6.21037 11.64C6.12037 11.53 5.97037 11.39 5.85037 11.39C5.14037 11.4 4.53037 11.63 4.09037 12.22C3.95037 12.41 3.98037 12.54 4.13037 12.72C4.50037 13.16 4.91037 13.59 5.18037 14.09C5.66037 14.98 6.06037 15.91 6.47037 16.84C6.60037 17.13 6.77037 17.2 7.03037 17.12C7.17037 17.08 7.32037 17.0301 7.42037 16.9301C7.99037 16.3901 8.63037 15.9 9.09037 15.28C9.86037 14.23 10.5204 13.1 11.2304 12C12.2604 10.42 13.2904 8.84002 14.6604 7.52002C15.1504 7.05002 15.7204 6.65998 16.2504 6.22998C15.9404 5.86998 15.6604 5.75997 15.2304 5.96997C14.7704 6.19997 14.2904 6.44002 13.9004 6.77002C12.9004 7.63002 11.9104 8.50005 10.9904 9.43005C9.78037 10.6801 8.65037 11.96 7.44037 13.26Z" fill="#BC2539"/>
</svg>
